<mxfile host="app.diagrams.net" modified="2023-06-04T11:46:36.072Z" agent="Mozilla/5.0 (Windows NT 10.0; Win64; x64) AppleWebKit/537.36 (KHTML, like Gecko) Chrome/114.0.0.0 Safari/537.36" etag="sdpyOaf4HPF4Ye76TL6D" version="21.3.7" type="device">
  <diagram name="Страница 1" id="9T8lTXTNgatgIEgo3Clg">
    <mxGraphModel dx="2840" dy="2122" grid="0" gridSize="10" guides="1" tooltips="1" connect="1" arrows="1" fold="1" page="0" pageScale="1" pageWidth="1169" pageHeight="1654" background="#ffffff" math="0" shadow="0">
      <root>
        <mxCell id="0" />
        <mxCell id="1" parent="0" />
        <mxCell id="vaPB8cnqVYqsFwj8KdSc-1" value="main" style="rounded=0;whiteSpace=wrap;html=1;flipV=0;" parent="1" vertex="1">
          <mxGeometry x="790" y="130" width="120" height="60" as="geometry" />
        </mxCell>
        <mxCell id="vaPB8cnqVYqsFwj8KdSc-2" value="main_menu" style="rounded=0;whiteSpace=wrap;html=1;flipV=0;" parent="1" vertex="1">
          <mxGeometry x="544" y="130" width="120" height="60" as="geometry" />
        </mxCell>
        <mxCell id="vaPB8cnqVYqsFwj8KdSc-3" value="csv_file_read" style="rounded=0;whiteSpace=wrap;html=1;flipV=0;" parent="1" vertex="1">
          <mxGeometry x="790" y="231" width="120" height="60" as="geometry" />
        </mxCell>
        <mxCell id="vaPB8cnqVYqsFwj8KdSc-4" value="free_list" style="rounded=0;whiteSpace=wrap;html=1;flipV=0;" parent="1" vertex="1">
          <mxGeometry x="920" y="130" width="120" height="60" as="geometry" />
        </mxCell>
        <mxCell id="vaPB8cnqVYqsFwj8KdSc-5" value="" style="endArrow=none;html=1;rounded=0;" parent="1" source="vaPB8cnqVYqsFwj8KdSc-3" target="vaPB8cnqVYqsFwj8KdSc-1" edge="1">
          <mxGeometry width="50" height="50" relative="1" as="geometry">
            <mxPoint x="826" y="317" as="sourcePoint" />
            <mxPoint x="876" y="267" as="targetPoint" />
          </mxGeometry>
        </mxCell>
        <mxCell id="vaPB8cnqVYqsFwj8KdSc-6" value="" style="endArrow=none;html=1;rounded=0;" parent="1" source="vaPB8cnqVYqsFwj8KdSc-1" target="vaPB8cnqVYqsFwj8KdSc-2" edge="1">
          <mxGeometry width="50" height="50" relative="1" as="geometry">
            <mxPoint x="260" y="300" as="sourcePoint" />
            <mxPoint x="310" y="250" as="targetPoint" />
          </mxGeometry>
        </mxCell>
        <mxCell id="vaPB8cnqVYqsFwj8KdSc-7" value="" style="endArrow=none;html=1;rounded=0;" parent="1" source="vaPB8cnqVYqsFwj8KdSc-1" target="vaPB8cnqVYqsFwj8KdSc-4" edge="1">
          <mxGeometry width="50" height="50" relative="1" as="geometry">
            <mxPoint x="1026" y="367" as="sourcePoint" />
            <mxPoint x="1076" y="317" as="targetPoint" />
          </mxGeometry>
        </mxCell>
        <mxCell id="vaPB8cnqVYqsFwj8KdSc-8" value="add_new_data" style="rounded=0;whiteSpace=wrap;html=1;flipV=0;" parent="1" vertex="1">
          <mxGeometry x="132" y="-135" width="120" height="60" as="geometry" />
        </mxCell>
        <mxCell id="vaPB8cnqVYqsFwj8KdSc-9" value="" style="endArrow=none;html=1;rounded=0;" parent="1" source="vaPB8cnqVYqsFwj8KdSc-8" target="vaPB8cnqVYqsFwj8KdSc-2" edge="1">
          <mxGeometry width="50" height="50" relative="1" as="geometry">
            <mxPoint x="370" y="339.99999999999864" as="sourcePoint" />
            <mxPoint x="420" y="289.99999999999864" as="targetPoint" />
          </mxGeometry>
        </mxCell>
        <mxCell id="vaPB8cnqVYqsFwj8KdSc-10" value="edit_data" style="rounded=0;whiteSpace=wrap;html=1;flipV=0;" parent="1" vertex="1">
          <mxGeometry x="-150" y="130" width="120" height="60" as="geometry" />
        </mxCell>
        <mxCell id="vaPB8cnqVYqsFwj8KdSc-11" value="" style="endArrow=none;html=1;rounded=0;" parent="1" source="vaPB8cnqVYqsFwj8KdSc-10" target="vaPB8cnqVYqsFwj8KdSc-2" edge="1">
          <mxGeometry width="50" height="50" relative="1" as="geometry">
            <mxPoint x="290" y="160" as="sourcePoint" />
            <mxPoint x="340" y="110" as="targetPoint" />
          </mxGeometry>
        </mxCell>
        <mxCell id="vaPB8cnqVYqsFwj8KdSc-12" value="delete_data" style="rounded=0;whiteSpace=wrap;html=1;flipV=0;" parent="1" vertex="1">
          <mxGeometry x="410" y="-180" width="120" height="60" as="geometry" />
        </mxCell>
        <mxCell id="vaPB8cnqVYqsFwj8KdSc-13" value="" style="endArrow=none;html=1;rounded=0;" parent="1" source="vaPB8cnqVYqsFwj8KdSc-12" target="vaPB8cnqVYqsFwj8KdSc-2" edge="1">
          <mxGeometry width="50" height="50" relative="1" as="geometry">
            <mxPoint x="370" y="239.99999999999864" as="sourcePoint" />
            <mxPoint x="420" y="189.99999999999864" as="targetPoint" />
          </mxGeometry>
        </mxCell>
        <mxCell id="vaPB8cnqVYqsFwj8KdSc-14" value="print_data" style="rounded=0;whiteSpace=wrap;html=1;flipV=0;" parent="1" vertex="1">
          <mxGeometry x="544" y="231" width="120" height="60" as="geometry" />
        </mxCell>
        <mxCell id="vaPB8cnqVYqsFwj8KdSc-15" value="" style="endArrow=none;html=1;rounded=0;" parent="1" source="vaPB8cnqVYqsFwj8KdSc-2" target="vaPB8cnqVYqsFwj8KdSc-14" edge="1">
          <mxGeometry width="50" height="50" relative="1" as="geometry">
            <mxPoint x="523" y="180" as="sourcePoint" />
            <mxPoint x="573" y="130" as="targetPoint" />
          </mxGeometry>
        </mxCell>
        <mxCell id="vaPB8cnqVYqsFwj8KdSc-16" value="search_data" style="rounded=0;whiteSpace=wrap;html=1;flipV=0;" parent="1" vertex="1">
          <mxGeometry x="-72" y="-57" width="120" height="60" as="geometry" />
        </mxCell>
        <mxCell id="vaPB8cnqVYqsFwj8KdSc-17" value="" style="endArrow=none;html=1;rounded=0;" parent="1" source="vaPB8cnqVYqsFwj8KdSc-2" target="vaPB8cnqVYqsFwj8KdSc-16" edge="1">
          <mxGeometry width="50" height="50" relative="1" as="geometry">
            <mxPoint x="730" y="300" as="sourcePoint" />
            <mxPoint x="780" y="250" as="targetPoint" />
          </mxGeometry>
        </mxCell>
        <mxCell id="vaPB8cnqVYqsFwj8KdSc-19" value="sort_data" style="rounded=0;whiteSpace=wrap;html=1;flipV=0;" parent="1" vertex="1">
          <mxGeometry x="790" y="-312" width="120" height="60" as="geometry" />
        </mxCell>
        <mxCell id="vaPB8cnqVYqsFwj8KdSc-20" value="" style="endArrow=none;html=1;rounded=0;" parent="1" source="vaPB8cnqVYqsFwj8KdSc-2" target="vaPB8cnqVYqsFwj8KdSc-19" edge="1">
          <mxGeometry width="50" height="50" relative="1" as="geometry">
            <mxPoint x="650" y="430" as="sourcePoint" />
            <mxPoint x="700" y="380" as="targetPoint" />
          </mxGeometry>
        </mxCell>
        <mxCell id="vaPB8cnqVYqsFwj8KdSc-21" value="exit_handler" style="rounded=0;whiteSpace=wrap;html=1;flipV=0;" parent="1" vertex="1">
          <mxGeometry x="790" y="-55" width="120" height="60" as="geometry" />
        </mxCell>
        <mxCell id="vaPB8cnqVYqsFwj8KdSc-22" value="" style="endArrow=none;html=1;rounded=0;" parent="1" source="vaPB8cnqVYqsFwj8KdSc-21" target="vaPB8cnqVYqsFwj8KdSc-2" edge="1">
          <mxGeometry width="50" height="50" relative="1" as="geometry">
            <mxPoint x="600" y="459.99999999999864" as="sourcePoint" />
            <mxPoint x="650" y="409.99999999999864" as="targetPoint" />
          </mxGeometry>
        </mxCell>
        <mxCell id="vaPB8cnqVYqsFwj8KdSc-24" value="select_prompt" style="rounded=0;whiteSpace=wrap;html=1;flipV=0;" parent="1" vertex="1">
          <mxGeometry x="-150" y="-312" width="120" height="60" as="geometry" />
        </mxCell>
        <mxCell id="vaPB8cnqVYqsFwj8KdSc-25" value="add_car" style="rounded=0;whiteSpace=wrap;html=1;flipV=0;" parent="1" vertex="1">
          <mxGeometry x="132" y="-55" width="120" height="60" as="geometry" />
        </mxCell>
        <mxCell id="vaPB8cnqVYqsFwj8KdSc-26" value="add_engine" style="rounded=0;whiteSpace=wrap;html=1;flipV=0;" parent="1" vertex="1">
          <mxGeometry x="277" y="-135" width="120" height="60" as="geometry" />
        </mxCell>
        <mxCell id="vaPB8cnqVYqsFwj8KdSc-28" value="" style="endArrow=none;html=1;rounded=0;" parent="1" source="vaPB8cnqVYqsFwj8KdSc-25" target="vaPB8cnqVYqsFwj8KdSc-8" edge="1">
          <mxGeometry width="50" height="50" relative="1" as="geometry">
            <mxPoint x="-289" y="699" as="sourcePoint" />
            <mxPoint x="-239" y="649" as="targetPoint" />
          </mxGeometry>
        </mxCell>
        <mxCell id="vaPB8cnqVYqsFwj8KdSc-29" value="" style="endArrow=none;html=1;rounded=0;" parent="1" source="vaPB8cnqVYqsFwj8KdSc-26" target="vaPB8cnqVYqsFwj8KdSc-8" edge="1">
          <mxGeometry width="50" height="50" relative="1" as="geometry">
            <mxPoint x="-267" y="729" as="sourcePoint" />
            <mxPoint x="-217" y="679" as="targetPoint" />
          </mxGeometry>
        </mxCell>
        <mxCell id="vaPB8cnqVYqsFwj8KdSc-31" value="" style="endArrow=none;html=1;rounded=0;" parent="1" source="vaPB8cnqVYqsFwj8KdSc-8" target="vaPB8cnqVYqsFwj8KdSc-24" edge="1">
          <mxGeometry width="50" height="50" relative="1" as="geometry">
            <mxPoint x="-260" y="550" as="sourcePoint" />
            <mxPoint x="-210" y="500" as="targetPoint" />
          </mxGeometry>
        </mxCell>
        <mxCell id="vaPB8cnqVYqsFwj8KdSc-32" value="" style="endArrow=none;html=1;rounded=0;" parent="1" source="vaPB8cnqVYqsFwj8KdSc-24" target="vaPB8cnqVYqsFwj8KdSc-10" edge="1">
          <mxGeometry width="50" height="50" relative="1" as="geometry">
            <mxPoint x="-350" y="250" as="sourcePoint" />
            <mxPoint x="-300" y="200" as="targetPoint" />
          </mxGeometry>
        </mxCell>
        <mxCell id="vaPB8cnqVYqsFwj8KdSc-33" value="print_cars_list" style="rounded=0;whiteSpace=wrap;html=1;flipV=0;" parent="1" vertex="1">
          <mxGeometry x="-210" y="270" width="120" height="60" as="geometry" />
        </mxCell>
        <mxCell id="vaPB8cnqVYqsFwj8KdSc-34" value="select_element" style="rounded=0;whiteSpace=wrap;html=1;flipV=0;" parent="1" vertex="1">
          <mxGeometry x="-345" y="60" width="120" height="60" as="geometry" />
        </mxCell>
        <mxCell id="vaPB8cnqVYqsFwj8KdSc-35" value="input_car" style="rounded=0;whiteSpace=wrap;html=1;flipV=0;" parent="1" vertex="1">
          <mxGeometry x="190" y="270" width="120" height="60" as="geometry" />
        </mxCell>
        <mxCell id="vaPB8cnqVYqsFwj8KdSc-36" value="car_get_id" style="rounded=0;whiteSpace=wrap;html=1;flipV=0;" parent="1" vertex="1">
          <mxGeometry x="-72" y="270" width="120" height="60" as="geometry" />
        </mxCell>
        <mxCell id="vaPB8cnqVYqsFwj8KdSc-37" value="next_car" style="rounded=0;whiteSpace=wrap;html=1;flipV=0;" parent="1" vertex="1">
          <mxGeometry x="60" y="270" width="120" height="60" as="geometry" />
        </mxCell>
        <mxCell id="vaPB8cnqVYqsFwj8KdSc-38" value="" style="endArrow=none;html=1;rounded=0;entryX=1;entryY=1;entryDx=0;entryDy=0;" parent="1" source="vaPB8cnqVYqsFwj8KdSc-10" target="vaPB8cnqVYqsFwj8KdSc-34" edge="1">
          <mxGeometry width="50" height="50" relative="1" as="geometry">
            <mxPoint x="-90" y="249.99999999999864" as="sourcePoint" />
            <mxPoint x="-40" y="199.99999999999864" as="targetPoint" />
          </mxGeometry>
        </mxCell>
        <mxCell id="vaPB8cnqVYqsFwj8KdSc-40" value="print_engines_list" style="rounded=0;whiteSpace=wrap;html=1;flipV=0;" parent="1" vertex="1">
          <mxGeometry x="190" y="200" width="120" height="60" as="geometry" />
        </mxCell>
        <mxCell id="vaPB8cnqVYqsFwj8KdSc-41" value="input_engine" style="rounded=0;whiteSpace=wrap;html=1;flipV=0;" parent="1" vertex="1">
          <mxGeometry x="-345" y="200" width="120" height="60" as="geometry" />
        </mxCell>
        <mxCell id="vaPB8cnqVYqsFwj8KdSc-42" value="engine_get_id" style="rounded=0;whiteSpace=wrap;html=1;flipV=0;" parent="1" vertex="1">
          <mxGeometry x="-345" y="130" width="120" height="60" as="geometry" />
        </mxCell>
        <mxCell id="vaPB8cnqVYqsFwj8KdSc-43" value="next_engine" style="rounded=0;whiteSpace=wrap;html=1;flipV=0;" parent="1" vertex="1">
          <mxGeometry x="-345" y="270" width="120" height="60" as="geometry" />
        </mxCell>
        <mxCell id="vaPB8cnqVYqsFwj8KdSc-48" value="" style="endArrow=none;html=1;rounded=0;exitX=0;exitY=0;exitDx=0;exitDy=0;" parent="1" source="vaPB8cnqVYqsFwj8KdSc-35" target="vaPB8cnqVYqsFwj8KdSc-10" edge="1">
          <mxGeometry width="50" height="50" relative="1" as="geometry">
            <mxPoint x="-340" y="190" as="sourcePoint" />
            <mxPoint x="-290" y="140" as="targetPoint" />
          </mxGeometry>
        </mxCell>
        <mxCell id="vaPB8cnqVYqsFwj8KdSc-49" value="" style="endArrow=none;html=1;rounded=0;" parent="1" source="vaPB8cnqVYqsFwj8KdSc-36" target="vaPB8cnqVYqsFwj8KdSc-10" edge="1">
          <mxGeometry width="50" height="50" relative="1" as="geometry">
            <mxPoint x="-330" y="200" as="sourcePoint" />
            <mxPoint x="-280" y="150" as="targetPoint" />
          </mxGeometry>
        </mxCell>
        <mxCell id="vaPB8cnqVYqsFwj8KdSc-50" value="" style="endArrow=none;html=1;rounded=0;" parent="1" source="vaPB8cnqVYqsFwj8KdSc-37" target="vaPB8cnqVYqsFwj8KdSc-10" edge="1">
          <mxGeometry width="50" height="50" relative="1" as="geometry">
            <mxPoint x="-320" y="210" as="sourcePoint" />
            <mxPoint x="-270" y="160" as="targetPoint" />
          </mxGeometry>
        </mxCell>
        <mxCell id="vaPB8cnqVYqsFwj8KdSc-51" value="" style="endArrow=none;html=1;rounded=0;" parent="1" source="vaPB8cnqVYqsFwj8KdSc-33" target="vaPB8cnqVYqsFwj8KdSc-10" edge="1">
          <mxGeometry width="50" height="50" relative="1" as="geometry">
            <mxPoint x="-310" y="220" as="sourcePoint" />
            <mxPoint x="-110" y="230" as="targetPoint" />
          </mxGeometry>
        </mxCell>
        <mxCell id="vaPB8cnqVYqsFwj8KdSc-52" value="" style="endArrow=none;html=1;rounded=0;exitX=1;exitY=0;exitDx=0;exitDy=0;" parent="1" source="vaPB8cnqVYqsFwj8KdSc-43" target="vaPB8cnqVYqsFwj8KdSc-10" edge="1">
          <mxGeometry width="50" height="50" relative="1" as="geometry">
            <mxPoint x="-420" y="50" as="sourcePoint" />
            <mxPoint x="-370" as="targetPoint" />
          </mxGeometry>
        </mxCell>
        <mxCell id="vaPB8cnqVYqsFwj8KdSc-53" value="" style="endArrow=none;html=1;rounded=0;" parent="1" source="vaPB8cnqVYqsFwj8KdSc-41" target="vaPB8cnqVYqsFwj8KdSc-10" edge="1">
          <mxGeometry width="50" height="50" relative="1" as="geometry">
            <mxPoint x="-410" y="60" as="sourcePoint" />
            <mxPoint x="-360" y="10" as="targetPoint" />
          </mxGeometry>
        </mxCell>
        <mxCell id="vaPB8cnqVYqsFwj8KdSc-54" value="" style="endArrow=none;html=1;rounded=0;" parent="1" source="vaPB8cnqVYqsFwj8KdSc-40" target="vaPB8cnqVYqsFwj8KdSc-10" edge="1">
          <mxGeometry width="50" height="50" relative="1" as="geometry">
            <mxPoint x="-400" y="70" as="sourcePoint" />
            <mxPoint x="-350" y="20" as="targetPoint" />
          </mxGeometry>
        </mxCell>
        <mxCell id="vaPB8cnqVYqsFwj8KdSc-55" value="" style="endArrow=none;html=1;rounded=0;" parent="1" source="vaPB8cnqVYqsFwj8KdSc-42" target="vaPB8cnqVYqsFwj8KdSc-10" edge="1">
          <mxGeometry width="50" height="50" relative="1" as="geometry">
            <mxPoint x="-390" y="80" as="sourcePoint" />
            <mxPoint x="-240" y="100" as="targetPoint" />
          </mxGeometry>
        </mxCell>
        <mxCell id="vaPB8cnqVYqsFwj8KdSc-60" value="" style="endArrow=none;html=1;rounded=0;" parent="1" source="vaPB8cnqVYqsFwj8KdSc-24" target="vaPB8cnqVYqsFwj8KdSc-12" edge="1">
          <mxGeometry width="50" height="50" relative="1" as="geometry">
            <mxPoint x="180" y="40" as="sourcePoint" />
            <mxPoint x="230" y="-10" as="targetPoint" />
          </mxGeometry>
        </mxCell>
        <mxCell id="vaPB8cnqVYqsFwj8KdSc-61" value="find_element_&lt;br&gt;with_id" style="rounded=0;whiteSpace=wrap;html=1;flipV=0;" parent="1" vertex="1">
          <mxGeometry x="277" y="-273" width="120" height="60" as="geometry" />
        </mxCell>
        <mxCell id="vaPB8cnqVYqsFwj8KdSc-62" value="delete_list_element" style="rounded=0;whiteSpace=wrap;html=1;flipV=0;" parent="1" vertex="1">
          <mxGeometry x="410" y="-273" width="120" height="60" as="geometry" />
        </mxCell>
        <mxCell id="vaPB8cnqVYqsFwj8KdSc-63" value="print_car" style="rounded=0;whiteSpace=wrap;html=1;flipV=0;" parent="1" vertex="1">
          <mxGeometry x="544" y="-273" width="120" height="60" as="geometry" />
        </mxCell>
        <mxCell id="vaPB8cnqVYqsFwj8KdSc-64" value="print_engine" style="rounded=0;whiteSpace=wrap;html=1;flipV=0;" parent="1" vertex="1">
          <mxGeometry x="544" y="-180" width="120" height="60" as="geometry" />
        </mxCell>
        <mxCell id="vaPB8cnqVYqsFwj8KdSc-66" value="" style="endArrow=none;html=1;rounded=0;" parent="1" source="vaPB8cnqVYqsFwj8KdSc-12" target="vaPB8cnqVYqsFwj8KdSc-62" edge="1">
          <mxGeometry width="50" height="50" relative="1" as="geometry">
            <mxPoint x="200" y="-260" as="sourcePoint" />
            <mxPoint x="250" y="-310" as="targetPoint" />
          </mxGeometry>
        </mxCell>
        <mxCell id="vaPB8cnqVYqsFwj8KdSc-67" value="" style="endArrow=none;html=1;rounded=0;" parent="1" source="vaPB8cnqVYqsFwj8KdSc-61" target="vaPB8cnqVYqsFwj8KdSc-12" edge="1">
          <mxGeometry width="50" height="50" relative="1" as="geometry">
            <mxPoint x="-190" y="-320" as="sourcePoint" />
            <mxPoint x="-140" y="-370" as="targetPoint" />
          </mxGeometry>
        </mxCell>
        <mxCell id="vaPB8cnqVYqsFwj8KdSc-68" value="" style="endArrow=none;html=1;rounded=0;" parent="1" source="vaPB8cnqVYqsFwj8KdSc-63" target="vaPB8cnqVYqsFwj8KdSc-12" edge="1">
          <mxGeometry width="50" height="50" relative="1" as="geometry">
            <mxPoint x="-180" y="-310" as="sourcePoint" />
            <mxPoint x="-130" y="-360" as="targetPoint" />
          </mxGeometry>
        </mxCell>
        <mxCell id="vaPB8cnqVYqsFwj8KdSc-69" value="" style="endArrow=none;html=1;rounded=0;" parent="1" source="vaPB8cnqVYqsFwj8KdSc-64" target="vaPB8cnqVYqsFwj8KdSc-12" edge="1">
          <mxGeometry width="50" height="50" relative="1" as="geometry">
            <mxPoint x="-170" y="-300" as="sourcePoint" />
            <mxPoint x="-120" y="-350" as="targetPoint" />
          </mxGeometry>
        </mxCell>
        <mxCell id="vaPB8cnqVYqsFwj8KdSc-71" value="" style="endArrow=none;html=1;rounded=0;" parent="1" source="vaPB8cnqVYqsFwj8KdSc-24" target="vaPB8cnqVYqsFwj8KdSc-16" edge="1">
          <mxGeometry width="50" height="50" relative="1" as="geometry">
            <mxPoint x="920" y="70" as="sourcePoint" />
            <mxPoint x="970" y="20" as="targetPoint" />
          </mxGeometry>
        </mxCell>
        <mxCell id="vaPB8cnqVYqsFwj8KdSc-72" value="search" style="rounded=0;whiteSpace=wrap;html=1;flipV=0;" parent="1" vertex="1">
          <mxGeometry x="-72" y="15" width="120" height="60" as="geometry" />
        </mxCell>
        <mxCell id="vaPB8cnqVYqsFwj8KdSc-73" value="" style="endArrow=none;html=1;rounded=0;" parent="1" source="vaPB8cnqVYqsFwj8KdSc-16" target="vaPB8cnqVYqsFwj8KdSc-72" edge="1">
          <mxGeometry width="50" height="50" relative="1" as="geometry">
            <mxPoint x="735" y="68" as="sourcePoint" />
            <mxPoint x="785" y="18" as="targetPoint" />
          </mxGeometry>
        </mxCell>
        <mxCell id="vaPB8cnqVYqsFwj8KdSc-74" value="" style="endArrow=none;html=1;rounded=0;" parent="1" source="vaPB8cnqVYqsFwj8KdSc-24" target="vaPB8cnqVYqsFwj8KdSc-19" edge="1">
          <mxGeometry width="50" height="50" relative="1" as="geometry">
            <mxPoint x="1070" y="390" as="sourcePoint" />
            <mxPoint x="1120" y="340" as="targetPoint" />
          </mxGeometry>
        </mxCell>
        <mxCell id="vaPB8cnqVYqsFwj8KdSc-75" value="sort_list" style="rounded=0;whiteSpace=wrap;html=1;flipV=0;" parent="1" vertex="1">
          <mxGeometry x="920" y="-240" width="120" height="60" as="geometry" />
        </mxCell>
        <mxCell id="vaPB8cnqVYqsFwj8KdSc-76" value="" style="endArrow=none;html=1;rounded=0;" parent="1" source="vaPB8cnqVYqsFwj8KdSc-19" target="vaPB8cnqVYqsFwj8KdSc-75" edge="1">
          <mxGeometry width="50" height="50" relative="1" as="geometry">
            <mxPoint x="1300" y="68" as="sourcePoint" />
            <mxPoint x="1350" y="18" as="targetPoint" />
          </mxGeometry>
        </mxCell>
        <mxCell id="vaPB8cnqVYqsFwj8KdSc-77" value="save_list_to_file" style="rounded=0;whiteSpace=wrap;html=1;flipV=0;" parent="1" vertex="1">
          <mxGeometry x="790" y="-136" width="120" height="60" as="geometry" />
        </mxCell>
        <mxCell id="vaPB8cnqVYqsFwj8KdSc-78" value="" style="endArrow=none;html=1;rounded=0;" parent="1" source="vaPB8cnqVYqsFwj8KdSc-77" target="vaPB8cnqVYqsFwj8KdSc-21" edge="1">
          <mxGeometry width="50" height="50" relative="1" as="geometry">
            <mxPoint x="1020" y="475" as="sourcePoint" />
            <mxPoint x="1070" y="425" as="targetPoint" />
          </mxGeometry>
        </mxCell>
        <mxCell id="vaPB8cnqVYqsFwj8KdSc-93" value="" style="endArrow=none;html=1;rounded=0;" parent="1" source="vaPB8cnqVYqsFwj8KdSc-19" target="vaPB8cnqVYqsFwj8KdSc-64" edge="1">
          <mxGeometry width="50" height="50" relative="1" as="geometry">
            <mxPoint x="670" y="-64" as="sourcePoint" />
            <mxPoint x="710" y="-306.31759656652366" as="targetPoint" />
          </mxGeometry>
        </mxCell>
        <mxCell id="vaPB8cnqVYqsFwj8KdSc-94" value="" style="endArrow=none;html=1;rounded=0;" parent="1" source="vaPB8cnqVYqsFwj8KdSc-19" target="vaPB8cnqVYqsFwj8KdSc-63" edge="1">
          <mxGeometry width="50" height="50" relative="1" as="geometry">
            <mxPoint x="680" y="-54" as="sourcePoint" />
            <mxPoint x="710" y="-365.716738197425" as="targetPoint" />
          </mxGeometry>
        </mxCell>
        <mxCell id="vaPB8cnqVYqsFwj8KdSc-95" value="print_cars_&lt;br style=&quot;border-color: var(--border-color);&quot;&gt;list_header" style="rounded=0;whiteSpace=wrap;html=1;flipV=0;" parent="1" vertex="1">
          <mxGeometry x="530" y="-468" width="120" height="60" as="geometry" />
        </mxCell>
        <mxCell id="vaPB8cnqVYqsFwj8KdSc-96" value="print_engines&lt;br&gt;_list_header" style="rounded=0;whiteSpace=wrap;html=1;flipV=0;" parent="1" vertex="1">
          <mxGeometry x="660" y="-468" width="120" height="60" as="geometry" />
        </mxCell>
        <mxCell id="vaPB8cnqVYqsFwj8KdSc-98" value="print_cars_&lt;br&gt;list_separator" style="rounded=0;whiteSpace=wrap;html=1;flipV=0;" parent="1" vertex="1">
          <mxGeometry x="530" y="-390" width="120" height="60" as="geometry" />
        </mxCell>
        <mxCell id="vaPB8cnqVYqsFwj8KdSc-99" value="print_engines_list_&lt;br&gt;separator" style="rounded=0;whiteSpace=wrap;html=1;flipV=0;" parent="1" vertex="1">
          <mxGeometry x="920" y="-390" width="120" height="60" as="geometry" />
        </mxCell>
        <mxCell id="vaPB8cnqVYqsFwj8KdSc-102" value="" style="endArrow=none;html=1;rounded=0;" parent="1" source="vaPB8cnqVYqsFwj8KdSc-19" target="vaPB8cnqVYqsFwj8KdSc-95" edge="1">
          <mxGeometry width="50" height="50" relative="1" as="geometry">
            <mxPoint x="650" y="-272" as="sourcePoint" />
            <mxPoint x="700" y="-322" as="targetPoint" />
          </mxGeometry>
        </mxCell>
        <mxCell id="vaPB8cnqVYqsFwj8KdSc-103" value="" style="endArrow=none;html=1;rounded=0;" parent="1" source="vaPB8cnqVYqsFwj8KdSc-19" target="vaPB8cnqVYqsFwj8KdSc-96" edge="1">
          <mxGeometry width="50" height="50" relative="1" as="geometry">
            <mxPoint x="660" y="-262" as="sourcePoint" />
            <mxPoint x="710" y="-312" as="targetPoint" />
          </mxGeometry>
        </mxCell>
        <mxCell id="vaPB8cnqVYqsFwj8KdSc-105" value="" style="endArrow=none;html=1;rounded=0;" parent="1" source="vaPB8cnqVYqsFwj8KdSc-19" target="vaPB8cnqVYqsFwj8KdSc-98" edge="1">
          <mxGeometry width="50" height="50" relative="1" as="geometry">
            <mxPoint x="680" y="-242" as="sourcePoint" />
            <mxPoint x="730" y="-292" as="targetPoint" />
          </mxGeometry>
        </mxCell>
        <mxCell id="vaPB8cnqVYqsFwj8KdSc-106" value="" style="endArrow=none;html=1;rounded=0;" parent="1" source="vaPB8cnqVYqsFwj8KdSc-19" target="vaPB8cnqVYqsFwj8KdSc-99" edge="1">
          <mxGeometry width="50" height="50" relative="1" as="geometry">
            <mxPoint x="690" y="-232" as="sourcePoint" />
            <mxPoint x="740" y="-282" as="targetPoint" />
          </mxGeometry>
        </mxCell>
        <mxCell id="vaPB8cnqVYqsFwj8KdSc-108" value="component_to_row" style="rounded=0;whiteSpace=wrap;html=1;flipV=0;" parent="1" vertex="1">
          <mxGeometry x="920" y="-55" width="120" height="60" as="geometry" />
        </mxCell>
        <mxCell id="vaPB8cnqVYqsFwj8KdSc-109" value="component_type&lt;br&gt;_to_row" style="rounded=0;whiteSpace=wrap;html=1;flipV=0;" parent="1" vertex="1">
          <mxGeometry x="920" y="38" width="120" height="60" as="geometry" />
        </mxCell>
        <mxCell id="vaPB8cnqVYqsFwj8KdSc-110" value="storehouse_to_row" style="rounded=0;whiteSpace=wrap;html=1;flipV=0;" parent="1" vertex="1">
          <mxGeometry x="790" y="38" width="120" height="60" as="geometry" />
        </mxCell>
        <mxCell id="vaPB8cnqVYqsFwj8KdSc-111" value="" style="endArrow=none;html=1;rounded=0;" parent="1" source="vaPB8cnqVYqsFwj8KdSc-21" target="vaPB8cnqVYqsFwj8KdSc-108" edge="1">
          <mxGeometry width="50" height="50" relative="1" as="geometry">
            <mxPoint x="910" y="-35" as="sourcePoint" />
            <mxPoint x="960" y="-85" as="targetPoint" />
          </mxGeometry>
        </mxCell>
        <mxCell id="vaPB8cnqVYqsFwj8KdSc-112" value="" style="endArrow=none;html=1;rounded=0;" parent="1" source="vaPB8cnqVYqsFwj8KdSc-21" target="vaPB8cnqVYqsFwj8KdSc-109" edge="1">
          <mxGeometry width="50" height="50" relative="1" as="geometry">
            <mxPoint x="920" y="-25" as="sourcePoint" />
            <mxPoint x="970" y="-75" as="targetPoint" />
          </mxGeometry>
        </mxCell>
        <mxCell id="vaPB8cnqVYqsFwj8KdSc-113" value="" style="endArrow=none;html=1;rounded=0;" parent="1" source="vaPB8cnqVYqsFwj8KdSc-21" target="vaPB8cnqVYqsFwj8KdSc-110" edge="1">
          <mxGeometry width="50" height="50" relative="1" as="geometry">
            <mxPoint x="930" y="-15" as="sourcePoint" />
            <mxPoint x="980" y="-65" as="targetPoint" />
          </mxGeometry>
        </mxCell>
        <mxCell id="b88sukPv4Jrqnhz18pOS-2" value="" style="endArrow=none;html=1;rounded=0;" parent="1" source="vaPB8cnqVYqsFwj8KdSc-1" target="vaPB8cnqVYqsFwj8KdSc-14" edge="1">
          <mxGeometry width="50" height="50" relative="1" as="geometry">
            <mxPoint x="1026" y="198" as="sourcePoint" />
            <mxPoint x="1076" y="148" as="targetPoint" />
          </mxGeometry>
        </mxCell>
      </root>
    </mxGraphModel>
  </diagram>
</mxfile>
